<svg width="256" height="256" viewBox="0 0 256 256" fill="none" xmlns="http://www.w3.org/2000/svg">
<rect width="256" height="256" rx="48" fill="#18181B"/>
<g transform="translate(40, 40) scale(0.75)">
<path d="M128 256C57.3066 256 0 198.693 0 128C0 57.3066 57.3066 0 128 0C198.693 0 256 57.3066 256 128C256 198.693 198.693 256 128 256Z" fill="url(#paint0_linear_1_2)" display="none"/>
<path d="M189.927 104.417C189.927 132.832 176.545 156.409 154.516 166.852V166.855C154.513 166.856 154.511 166.858 154.509 166.859L154.516 166.852C149.294 169.34 143.434 170.833 137.037 170.833C106.732 170.833 81.8384 145.939 81.8384 115.634C81.8384 85.3283 106.732 60.4348 137.037 60.4348C154.57 60.4348 169.973 69.3496 179.378 83.2185V64.678H201.21V141.67C201.21 155.085 194.279 166.621 183.189 172.93C193.363 164.501 200.413 152.016 200.413 137.625C200.413 133.021 199.866 128.536 198.86 124.288L198.784 123.951L198.783 123.946C205.159 111.458 209.914 97.4087 209.914 82.2016C209.914 36.8576 173.057 0 127.712 0C57.199 0 0.144531 57.0545 0.144531 127.567C0.144531 198.08 57.199 255.134 127.712 255.134C149.924 255.134 170.525 248.513 187.971 236.938L163.666 212.633C153.076 219.782 140.761 224.225 127.712 224.225C73.9161 224.225 30.9328 181.242 30.9328 127.446C30.9328 73.6503 73.9161 30.667 127.712 30.667C154.51 30.667 177.29 43.1492 189.927 62.434V104.417ZM112.747 115.634C112.747 131.087 123.545 141.884 139.001 141.884H147.285V89.3829H139.001C123.545 89.3829 112.747 100.181 112.747 115.634Z" fill="#52C63F"/>
<defs>
<linearGradient id="paint0_linear_1_2" x1="128" y1="0" x2="128" y2="256" gradientUnits="userSpaceOnUse">
<stop stop-color="#4E4E4E"/>
<stop offset="1" stop-color="#111111"/>
</linearGradient>
</defs>
</svg>