<svg xmlns="http://www.w3.org/2000/svg" width="24" height="24" viewBox="0 0 24 24" fill="none" stroke="currentColor" stroke-width="2" stroke-linecap="round" stroke-linejoin="round" class="lucide lucide-amazon"><path d="M14.72 17.47C14.49 17.84 14.26 18.22 14.01 18.61C13.82 18.91 13.63 19.22 13.44 19.53C13.25 19.84 13.06 20.15 12.87 20.46C12.42 21.21 11.97 22 11.02 22C9.89 22 8.99 21.2 8.99 20.08C8.99 19.33 9.38 18.73 10.02 18.25C10.74 17.7 11.66 17.22 12.72 16.79C14.76 15.96 16.51 15.14 17.58 13.58C18.45 12.3 18.45 10.79 17.79 9.53C17.13 8.27 15.93 7.43 14.54 7.43C12.89 7.43 11.51 8.35 10.82 9.51C10.59 9.89 10.37 10.29 10.15 10.7C9.92 11.13 9.7 11.58 9.47 12.04L9.04 13.02C8.82 13.53 8.6 14.04 2.84 14.04C2.26 14.04 2.01 13.68 2.01 13.2C2.01 12.72 2.26 12.35 2.81 12.35C5.3 12.35 6.95 11.43 7.82 9.89C8.92 7.95 10.54 6 13.27 6C16.5 6 18.57 7.7 19.52 9.57C20.44 11.37 20.17 13.44 18.97 15.11C18.02 16.46 16.51 17.15 14.72 17.47Z"/><path d="M18 20.24c-1.55 0-2.83-1.55-2.83-3.47S16.45 13.3 18 13.3a2.6 2.6 0 0 1 2.83 2.53v.03c0 .5-.14.98-.4 1.4a2.9 2.9 0 0 1-2.43 1.48z"/></svg>
    