<svg xmlns="http://www.w3.org/2000/svg" width="24" height="24" viewBox="0 0 24 24" fill="none" stroke="currentColor" stroke-width="2" stroke-linecap="round" stroke-linejoin="round" class="lucide lucide-package"><path d="M16.5 9.4a4.5 4.5 0 1 1-9 0a4.5 4.5 0 0 1 9 0Z"/><path d="M12 14.1H3.6a.6.6 0 0 1-.6-.6v-4a.6.6 0 0 1 .6-.6h16.8a.6.6 0 0 1 .6.6v4a.6.6 0 0 1-.6.6h-3.9"/><path d="M12 14.1v5.8a.6.6 0 0 1-.6.6H7.7a.6.6 0 0 1-.6-.6v-5.8"/><path d="M12 14.1l3.6 2.4a.6.6 0 0 0 .6 0l3.6-2.4"/></svg>
    