<svg xmlns="http://www.w3.org/2000/svg" width="24" height="24" viewBox="0 0 24 24" fill="none" stroke="currentColor" stroke-width="2" stroke-linecap="round" stroke-linejoin="round" class="lucide lucide-stripe"><path d="M14.7 15.3 9.3 8.7C11.5 7.2 14.5 8.3 15.3 10.5c.8 2.2-.3 5.2-2.5 6.7C12 17.8 11 17.5 10 17s-2 .8-2.5 1.3c-.5.5-1 1-1.5 1.5A3.5 3.5 0 0 1 2 16.5c0-2.2 1.8-4 4-4 .8 0 1.5.3 2.1.8.6.5 1.2 1 2.4 1 1.2 0 1.8-.5 2.4-1 .6-.5 1.3-.8 2.1-.8 2.2 0 4 1.8 4 4 0 1-.4 1.8-1.1 2.4-.6.6-1.3 1-2.4 1-1.1 0-1.8-.4-2.4-1-.5-.4-1.1-.7-1.8-.7-1.1 0-2.1.5-2.8 1.3l5.4 6.6c2.2-1.5 3.3-4.5 2.5-6.7s-3.3-4-5.5-2.5Z"/></svg>
    